<svg width="57" height="52" viewBox="0 0 57 52" fill="none" xmlns="http://www.w3.org/2000/svg">
<path fill-rule="evenodd" clip-rule="evenodd" d="M38 30C38 31.6569 36.6569 33 35 33C33.3431 33 32 31.6569 32 30C32 28.6887 32.8414 27.5738 34.0137 27.1659C34.0047 27.1119 34 27.0565 34 27V21C34 20.4477 34.4477 20 35 20C35.5523 20 36 20.4477 36 21V27C36 27.0565 35.9953 27.1119 35.9863 27.1659C37.1586 27.5738 38 28.6887 38 30ZM36 30C36 30.5523 35.5523 31 35 31C34.4477 31 34 30.5523 34 30C34 29.4477 34.4477 29 35 29C35.5523 29 36 29.4477 36 30Z" fill="#475766"/>
<path fill-rule="evenodd" clip-rule="evenodd" d="M35 47C25.6112 47 18 39.3888 18 30C18 20.6112 25.6112 13 35 13C44.3888 13 52 20.6112 52 30C52 39.3888 44.3888 47 35 47ZM48 29H49.9672C49.8351 26.9937 49.3086 25.0951 48.4644 23.381L47.6244 23.866C47.1461 24.1422 46.5345 23.9783 46.2584 23.5C45.9822 23.0217 46.1461 22.4101 46.6244 22.134L47.4628 21.6499C46.3728 20.0262 44.9738 18.6272 43.3501 17.5372L42.866 18.3756C42.5899 18.8539 41.9783 19.0178 41.5 18.7416C41.0217 18.4655 40.8578 17.8539 41.134 17.3756L41.6189 16.5356C39.9049 15.6914 38.0063 15.1649 36 15.0328V17C36 17.5523 35.5523 18 35 18C34.4477 18 34 17.5523 34 17V15.0328C31.9936 15.1649 30.095 15.6914 28.381 16.5356L28.866 17.3757C29.1422 17.854 28.9783 18.4656 28.5 18.7418C28.0217 19.0179 27.4101 18.854 27.134 18.3757L26.6498 17.5372C25.0261 18.6272 23.6272 20.0262 22.5372 21.6499L23.3756 22.134C23.8539 22.4101 24.0178 23.0217 23.7416 23.5C23.4655 23.9783 22.8539 24.1422 22.3756 23.866L21.5356 23.381C20.6914 25.0951 20.1649 26.9937 20.0328 29H22C22.5523 29 23 29.4477 23 30C23 30.5523 22.5523 31 22 31H20.0328C20.1649 33.0063 20.6914 34.9049 21.5356 36.619L22.3756 36.134C22.8539 35.8578 23.4655 36.0217 23.7416 36.5C24.0178 36.9783 23.8539 37.5899 23.3756 37.866L22.5372 38.3501C23.6272 39.9738 25.0261 41.3728 26.6498 42.4628L27.134 41.6243C27.4101 41.146 28.0217 40.9821 28.5 41.2582C28.9783 41.5344 29.1422 42.146 28.866 42.6243L28.381 43.4644C30.095 44.3086 31.9936 44.8351 34 44.9672V43C34 42.4477 34.4477 42 35 42C35.5523 42 36 42.4477 36 43V44.9672C38.0063 44.8351 39.9049 44.3086 41.619 43.4644L41.134 42.6244C40.8578 42.1461 41.0217 41.5345 41.5 41.2584C41.9783 40.9822 42.5899 41.1461 42.866 41.6244L43.3501 42.4628C44.9738 41.3728 46.3728 39.9738 47.4628 38.3501L46.6244 37.866C46.1461 37.5899 45.9822 36.9783 46.2584 36.5C46.5345 36.0217 47.1461 35.8578 47.6244 36.134L48.4644 36.6189C49.3086 34.9049 49.8351 33.0063 49.9672 31H48C47.4477 31 47 30.5523 47 30C47 29.4477 47.4477 29 48 29Z" fill="#475766"/>
<path fill-rule="evenodd" clip-rule="evenodd" d="M39 8C39 8.12183 38.9891 8.24112 38.9682 8.35694C42.2845 8.96105 45.3415 10.3086 47.96 12.2207C48.0332 11.5686 48.3198 10.9359 48.8199 10.4358C49.9915 9.26426 51.891 9.26426 53.0625 10.4358L55.2612 12.6345C56.4328 13.8061 56.4328 15.7056 55.2612 16.8772C54.7107 17.4277 53.9994 17.7195 53.2785 17.7527C55.6288 21.2534 57 25.4666 57 30C57 42.1503 47.1503 52 35 52C22.8497 52 13 42.1503 13 30C13 25.4646 14.3724 21.2497 16.7246 17.7481C16.0306 17.6981 15.3506 17.4078 14.8199 16.8772C13.6484 15.7056 13.6484 13.8061 14.8199 12.6345L17.0186 10.4358C18.1902 9.26426 20.0897 9.26426 21.2613 10.4358C21.7475 10.922 22.0319 11.5336 22.1145 12.1664C24.7165 10.2831 27.7469 8.95532 31.0318 8.35694C31.0109 8.24112 31 8.12183 31 8V7C31 6.44772 30.5523 6 30 6C28.3431 6 27 4.65685 27 3C27 1.34315 28.3431 0 30 0H40C41.6569 0 43 1.34315 43 3C43 4.65685 41.6569 6 40 6C39.4477 6 39 6.44772 39 7V8ZM30 2C29.4477 2 29 2.44772 29 3C29 3.55228 29.4477 4 30 4C31.6569 4 33 5.34315 33 7V8H37V7C37 5.34315 38.3431 4 40 4C40.5523 4 41 3.55228 41 3C41 2.44772 40.5523 2 40 2H30ZM15 30C15 18.9543 23.9543 10 35 10C46.0457 10 55 18.9543 55 30C55 41.0457 46.0457 50 35 50C23.9543 50 15 41.0457 15 30ZM16.2341 14.0488L18.4328 11.85C18.8234 11.4595 19.4565 11.4595 19.8471 11.85C20.2376 12.2406 20.2376 12.8737 19.8471 13.2643L17.6484 15.463C17.2578 15.8535 16.6247 15.8535 16.2341 15.463C15.8436 15.0724 15.8436 14.4393 16.2341 14.0488ZM51.6483 11.85L53.847 14.0488C54.2376 14.4393 54.2376 15.0724 53.847 15.463C53.4565 15.8535 52.8233 15.8535 52.4328 15.463L50.2341 13.2643C49.8436 12.8737 49.8436 12.2406 50.2341 11.85C50.6246 11.4595 51.2578 11.4595 51.6483 11.85Z" fill="#475766"/>
<path d="M9.5 20C8.94771 20 8.5 20.4477 8.5 21C8.5 21.5523 8.94771 22 9.5 22H12C12.5523 22 13 21.5523 13 21C13 20.4477 12.5523 20 12 20H9.5Z" fill="#475766"/>
<path d="M2.5 27C2.5 26.4477 2.94772 26 3.5 26H10C10.5523 26 11 26.4477 11 27C11 27.5523 10.5523 28 10 28H3.5C2.94772 28 2.5 27.5523 2.5 27Z" fill="#475766"/>
<path d="M1.5 32C0.947715 32 0.5 32.4477 0.5 33C0.5 33.5523 0.947715 34 1.5 34H10C10.5523 34 11 33.5523 11 33C11 32.4477 10.5523 32 10 32H1.5Z" fill="#475766"/>
<path d="M6.5 39C6.5 38.4477 6.94772 38 7.5 38H12C12.5523 38 13 38.4477 13 39C13 39.5523 12.5523 40 12 40H7.5C6.94772 40 6.5 39.5523 6.5 39Z" fill="#475766"/>
<path d="M12.5 43C11.9477 43 11.5 43.4477 11.5 44C11.5 44.5523 11.9477 45 12.5 45H15C15.5523 45 16 44.5523 16 44C16 43.4477 15.5523 43 15 43H12.5Z" fill="#475766"/>
</svg>
