<svg width="76" height="41" viewBox="0 0 76 41" fill="none" xmlns="http://www.w3.org/2000/svg">
<path d="M1.75 40.0833C1.19771 40.0833 0.75 39.6356 0.75 39.0833V35.0833C0.75 34.5311 1.19772 34.0833 1.75 34.0833H58.0833C58.6356 34.0833 59.0833 34.5311 59.0833 35.0833V39.0833C59.0833 39.6356 58.6356 40.0833 58.0833 40.0833H1.75ZM10.0833 23.0833C9.53105 23.0833 9.08333 22.6356 9.08333 22.0833V18.0833C9.08333 17.5311 9.53105 17.0833 10.0833 17.0833H66.4167C66.969 17.0833 67.4167 17.5311 67.4167 18.0833V22.0833C67.4167 22.6356 66.969 23.0833 66.4167 23.0833H10.0833ZM18.4167 6.08334C17.8644 6.08334 17.4167 5.63563 17.4167 5.08334V1.08334C17.4167 0.531059 17.8644 0.0833435 18.4167 0.0833435H74.75C75.3023 0.0833435 75.75 0.531059 75.75 1.08334V5.08334C75.75 5.63563 75.3023 6.08334 74.75 6.08334H18.4167Z" fill="#384959"/>
</svg>
